# xmcd
#
# Track frame offsets: 
#        150
#        18017
#        31120
#        45799
#        50623
#        63676
#        74017
#        87576
#        90616
#        99467
#        105597
#        128479
#        142845
#        168548
#        186032
#
# Disc length: 2629 seconds
#
# Revision: 0
# Processed by: cddbd v1.4PL0 Copyright (c) Steve Scherf et al.
# Submitted via: ExactAudioCopy v0.90b4
#
DISCID=be0a430f
DTITLE=Sandman - The Long Ride Home
DYEAR=2003
DGENRE=Indie
TTITLE0=Radio Works Fine
TTITLE1=Modern Man
TTITLE2=Belmopan is Belmopan
TTITLE3=I Got My Email Cut Off
TTITLE4=Hit the Road
TTITLE5=Ol' King Kong
TTITLE6=Go Easy On Me, Boss (My Heart is Breakin')
TTITLE7=Goner
TTITLE8=Christ-Bearer's Blues
TTITLE9=The Cowboy's Life is a Very Dreary Life
TTITLE10=Gorilla
TTITLE11=Nothin' to Say
TTITLE12=Hammer and Screw
TTITLE13=Imaginary World
TTITLE14=Folk Legend (MLK)
EXTD=www.knw-yr-own.com\nwww.rappincowboy.com
EXTT0=
EXTT1=
EXTT2=
EXTT3=
EXTT4=
EXTT5=
EXTT6=
EXTT7=
EXTT8=
EXTT9=
EXTT10=
EXTT11=
EXTT12=
EXTT13=
EXTT14=
PLAYORDER=
